<svg xmlns="http://www.w3.org/2000/svg" viewBox="0 0 500 500">
<path d="M 203,324 L 203,328 L 204,329 L 206,329 L 207,331 L 210,331 L 211,332 L 211,334 L 213,334 L 214,336 L 216,336 L 217,338 L 219,338 L 220,340 L 222,340 L 223,342 L 227,342 L 228,343 L 228,345 L 230,345 L 231,347 L 233,348 L 237,348 L 238,349 L 238,351 L 242,351 L 242,347 L 238,347 L 237,346 L 237,344 L 233,343 L 232,341 L 228,341 L 227,340 L 227,338 L 225,338 L 224,336 L 222,336 L 221,334 L 219,334 L 218,332 L 216,332 L 215,330 L 212,330 L 211,329 L 211,327 L 209,327 L 207,324 Z" fill="#37684d" />
<path d="M 255,310 L 255,350 L 257,351 L 261,351 L 261,347 L 259,346 L 259,310 Z" fill="#37684d" />
<path d="M 173,293 L 173,297 L 175,299 L 175,300 L 176,301 L 178,301 L 179,302 L 179,305 L 180,306 L 184,306 L 184,302 L 183,301 L 181,301 L 180,300 L 180,297 L 178,295 L 178,294 L 177,293 Z" fill="#37684d" />
<path d="M 326,292 L 322,292 L 322,294 L 321,295 L 320,295 L 320,297 L 317,299 L 317,303 L 316,304 L 313,304 L 312,305 L 312,309 L 316,309 L 317,308 L 317,304 L 318,303 L 321,303 L 322,302 L 322,300 L 323,299 L 324,299 L 324,297 L 325,296 L 326,296 Z" fill="#37684d" />
<path d="M 337,270 L 333,270 L 333,272 L 332,273 L 332,274 L 331,275 L 331,279 L 330,280 L 329,280 L 329,281 L 328,282 L 328,283 L 327,284 L 327,288 L 331,288 L 331,287 L 332,286 L 332,285 L 333,284 L 333,280 L 334,279 L 335,279 L 335,278 L 336,277 L 336,275 L 337,274 Z" fill="#37684d" />
<path d="M 157,254 L 157,259 L 158,260 L 158,263 L 159,264 L 159,267 L 161,267 L 162,268 L 161,269 L 161,273 L 162,274 L 162,276 L 166,276 L 166,272 L 165,271 L 165,269 L 163,269 L 162,268 L 163,267 L 163,263 L 162,262 L 162,259 L 161,258 L 161,254 Z" fill="#37684d" />
<path d="M 342,250 L 338,250 L 338,255 L 337,256 L 337,259 L 336,260 L 336,265 L 340,265 L 340,261 L 341,260 L 341,256 L 342,255 Z" fill="#37684d" />
<path d="M 320,247 L 316,247 L 316,248 L 315,249 L 313,249 L 313,252 L 312,253 L 308,253 L 307,254 L 307,258 L 311,258 L 312,257 L 312,254 L 313,253 L 317,253 L 317,252 L 318,251 L 320,251 Z" fill="#37684d" />
<path d="M 173,242 L 173,246 L 177,246 L 178,247 L 178,250 L 179,251 L 182,251 L 183,252 L 183,254 L 186,254 L 187,255 L 187,257 L 188,258 L 192,258 L 192,254 L 191,253 L 188,253 L 187,252 L 187,250 L 184,250 L 183,249 L 183,247 L 182,246 L 178,246 L 177,245 L 177,242 Z" fill="#37684d" />
<path d="M 197,241 L 197,245 L 198,246 L 200,246 L 202,249 L 205,249 L 206,250 L 206,252 L 207,253 L 211,253 L 212,254 L 212,257 L 213,258 L 217,258 L 217,254 L 216,253 L 212,253 L 211,252 L 211,249 L 211,249 L 210,248 L 207,248 L 206,247 L 206,245 L 205,244 L 203,244 L 201,241 Z" fill="#37684d" />
<path d="M 255,233 L 255,281 L 261,281 L 262,279 L 268,274 L 268,270 L 264,270 L 261,273 L 259,272 L 259,233 Z" fill="#37684d" />
<path d="M 161,226 L 157,226 L 157,227 L 156,228 L 155,228 L 155,241 L 159,241 L 159,232 L 160,231 L 162,231 L 162,227 Z" fill="#37684d" />
<path d="M 338,225 L 338,227 L 337,228 L 336,228 L 336,232 L 338,232 L 339,233 L 339,234 L 343,234 L 343,227 L 342,226 L 342,225 Z" fill="#37684d" />
<path d="M 172,220 L 172,224 L 176,228 L 177,228 L 179,231 L 182,231 L 183,232 L 183,234 L 184,235 L 187,235 L 188,236 L 188,238 L 189,239 L 193,239 L 193,235 L 192,234 L 189,234 L 188,233 L 188,231 L 187,230 L 184,230 L 183,229 L 183,227 L 182,226 L 181,226 L 180,225 L 180,224 L 176,220 Z" fill="#37684d" />
<path d="M 225,191 L 225,195 L 230,200 L 234,200 L 234,196 L 229,191 Z" fill="#37684d" />
<path d="M 170,184 L 166,184 L 166,188 L 165,189 L 164,189 L 164,193 L 165,194 L 164,195 L 162,195 L 162,199 L 166,199 L 166,195 L 165,194 L 166,193 L 168,193 L 168,189 L 169,188 L 170,188 Z" fill="#37684d" />
<path d="M 313,177 L 309,177 L 303,183 L 303,187 L 307,187 L 313,181 Z" fill="#37684d" />
<path d="M 302,166 L 298,166 L 293,171 L 293,175 L 297,175 L 302,170 Z" fill="#37684d" />
<path d="M 318,164 L 316,167 L 316,169 L 315,170 L 314,170 L 314,174 L 318,174 L 318,172 L 319,171 L 321,171 L 322,172 L 322,175 L 323,176 L 323,177 L 324,178 L 324,179 L 328,179 L 328,175 L 327,174 L 327,173 L 326,172 L 326,171 L 325,171 L 324,170 L 324,167 L 322,165 L 322,164 Z" fill="#37684d" />
<path d="M 177,164 L 176,165 L 176,169 L 175,170 L 173,170 L 173,174 L 177,174 L 177,170 L 178,169 L 179,169 L 180,170 L 180,173 L 181,173 L 182,174 L 182,176 L 183,176 L 184,177 L 184,179 L 188,179 L 188,175 L 187,175 L 186,174 L 186,172 L 185,172 L 184,171 L 184,169 L 182,169 L 181,168 L 181,164 Z" fill="#37684d" />
<path d="M 310,147 L 306,147 L 306,156 L 305,157 L 304,157 L 304,159 L 303,160 L 302,160 L 302,164 L 306,164 L 306,162 L 307,161 L 308,161 L 308,157 L 309,156 L 310,156 Z" fill="#37684d" />
<path d="M 191,144 L 191,147 L 190,148 L 188,148 L 188,155 L 189,156 L 189,158 L 190,159 L 190,160 L 191,161 L 191,162 L 195,162 L 195,158 L 194,157 L 194,156 L 193,155 L 193,154 L 192,153 L 192,149 L 193,148 L 195,148 L 195,144 Z" fill="#37684d" />
<path d="M 234,103 L 230,103 L 229,104 L 229,105 L 228,106 L 227,106 L 224,109 L 224,113 L 228,113 L 231,110 L 231,109 L 232,108 L 233,108 L 234,107 Z" fill="#37684d" />
<path d="M 256,95 L 255,206 L 256,208 L 260,208 L 262,206 L 262,202 L 259,201 L 259,103 L 263,102 L 263,98 L 260,95 Z" fill="#37684d" />
<path d="M 293,326 L 289,326 L 289,329 L 288,330 L 284,330 L 284,331 L 283,332 L 281,332 L 281,333 L 280,334 L 278,334 L 278,335 L 277,336 L 275,336 L 275,337 L 274,338 L 272,338 L 272,342 L 276,342 L 276,341 L 277,340 L 279,340 L 279,339 L 280,338 L 282,338 L 282,337 L 283,336 L 285,336 L 285,335 L 286,334 L 288,334 L 288,331 L 289,330 L 293,330 Z" fill="#5cdf94" />
<path d="M 163,192 L 163,196 L 164,197 L 163,198 L 161,198 L 161,202 L 162,202 L 163,203 L 162,204 L 162,208 L 166,208 L 166,204 L 165,204 L 164,203 L 165,202 L 165,198 L 164,197 L 165,196 L 167,196 L 167,192 Z" fill="#5cdf94" />
<path d="M 238,96 L 198,136 L 189,147 L 188,154 L 193,165 L 200,173 L 236,205 L 243,207 L 243,96 Z" fill="#5cdf94" />
<path d="M 342,226 L 338,226 L 322,243 L 289,269 L 259,298 L 256,304 L 256,351 L 264,349 L 292,331 L 323,300 L 339,268 L 342,252 Z" fill="#a1d69c" />
<path d="M 324,176 L 324,180 L 325,180 L 326,181 L 326,184 L 327,185 L 327,186 L 328,187 L 328,188 L 329,189 L 329,191 L 330,192 L 330,193 L 331,194 L 331,196 L 335,196 L 335,192 L 334,191 L 334,189 L 333,188 L 333,187 L 332,186 L 332,184 L 331,183 L 331,182 L 330,181 L 330,180 L 329,180 L 328,179 L 328,176 Z" fill="#a1d69c" />
<path d="M 182,166 L 178,166 L 177,167 L 175,167 L 174,171 L 172,172 L 172,175 L 170,176 L 170,179 L 168,180 L 167,182 L 167,186 L 165,187 L 165,189 L 164,190 L 164,194 L 168,194 L 168,192 L 169,191 L 169,187 L 171,186 L 172,184 L 172,181 L 174,180 L 174,177 L 176,176 L 176,174 L 178,173 L 179,171 L 181,172 L 181,175 L 183,176 L 183,178 L 187,178 L 187,174 L 185,173 L 185,171 L 183,171 L 182,170 Z" fill="#a1d69c" />
<path d="M 304,145 L 304,149 L 305,149 L 306,150 L 306,153 L 305,154 L 305,155 L 304,156 L 304,157 L 303,158 L 303,162 L 307,162 L 307,161 L 308,160 L 308,159 L 309,158 L 309,156 L 310,155 L 310,148 L 309,148 L 308,147 L 308,145 Z" fill="#a1d69c" />
<path d="M 273,111 L 273,115 L 276,118 L 277,118 L 278,119 L 278,120 L 279,120 L 280,121 L 280,122 L 281,122 L 282,123 L 282,124 L 284,124 L 285,125 L 285,127 L 288,130 L 292,130 L 292,126 L 289,123 L 287,123 L 286,122 L 286,120 L 285,120 L 284,119 L 284,118 L 283,118 L 282,117 L 282,116 L 281,116 L 280,115 L 280,114 L 277,111 Z" fill="#a1d69c" />
<path d="M 185,252 L 185,256 L 188,256 L 189,257 L 189,259 L 193,259 L 194,260 L 194,263 L 195,264 L 199,264 L 200,265 L 200,268 L 204,268 L 204,264 L 200,264 L 199,263 L 199,260 L 198,259 L 194,259 L 193,258 L 193,255 L 190,255 L 189,254 L 189,252 Z" fill="#a0f3c4" />
<path d="M 322,165 L 318,165 L 312,175 L 258,225 L 256,230 L 256,281 L 260,281 L 281,261 L 319,231 L 332,216 L 337,205 L 337,199 Z" fill="#a0f3c4" />
<path d="M 181,228 L 181,232 L 182,233 L 186,233 L 187,234 L 187,237 L 190,237 L 191,238 L 191,240 L 195,240 L 196,241 L 196,244 L 199,244 L 200,245 L 200,247 L 204,247 L 204,243 L 201,243 L 200,242 L 200,240 L 196,240 L 195,239 L 195,236 L 192,236 L 191,235 L 191,233 L 187,233 L 186,232 L 186,229 L 185,228 Z" fill="#b3f2a8" />
<path d="M 256,96 L 256,207 L 260,207 L 302,169 L 309,157 L 310,149 L 281,115 L 260,96 Z" fill="#b3f2a8" />
<path d="M 156,226 L 158,262 L 165,282 L 175,299 L 205,329 L 239,351 L 243,351 L 243,305 L 241,300 L 212,271 L 174,241 L 160,226 Z" fill="#c3f8cf" />
<path d="M 177,165 L 162,196 L 162,207 L 165,214 L 180,231 L 210,254 L 239,281 L 243,281 L 242,227 L 186,174 L 181,165 Z" fill="#c3f8cf" />
<path d="M 248,75 L 198,119 L 168,157 L 148,201 L 143,239 L 150,279 L 173,318 L 216,354 L 245,370 L 254,371 L 306,339 L 337,306 L 355,264 L 357,223 L 346,182 L 326,147 L 286,102 L 255,76 Z M 341,230 L 343,232 L 343,242 L 340,264 L 333,283 L 322,301 L 294,329 L 272,344 L 259,350 L 257,348 L 257,313 L 260,302 L 285,277 Z M 159,230 L 161,230 L 175,244 L 207,269 L 241,302 L 243,307 L 243,347 L 241,349 L 234,347 L 207,329 L 193,317 L 177,299 L 167,282 L 161,266 L 157,240 L 157,232 Z M 322,169 L 329,180 L 337,201 L 337,205 L 332,216 L 315,234 L 290,253 L 263,278 L 259,280 L 257,278 L 257,236 L 260,227 L 283,205 L 300,191 L 315,176 L 316,173 L 320,169 Z M 179,169 L 181,169 L 188,179 L 195,186 L 220,207 L 242,229 L 243,232 L 243,276 L 241,278 L 236,276 L 217,258 L 182,231 L 174,223 L 166,212 L 163,205 L 163,201 L 168,187 L 175,173 Z M 259,100 L 262,100 L 295,132 L 310,150 L 310,155 L 308,160 L 302,169 L 261,206 L 259,206 L 257,204 L 257,102 Z M 239,100 L 241,100 L 243,102 L 243,203 L 241,205 L 239,205 L 222,189 L 207,177 L 197,167 L 190,154 L 190,151 L 207,131 Z " fill="#133b2d" fill-rule="evenodd" />
</svg>
